<?xml version="1.0" encoding="UTF-8"?><svg xmlns="http://www.w3.org/2000/svg" viewBox="0 0 11.29 11.29"><defs><style>.d{fill:#fff;}.e{fill:#222221;}</style></defs><g id="a"/><g id="b"><g id="c"><circle class="e" cx="5.64" cy="5.64" r="5.64"/><path class="d" d="M3.28,2.43c0-.12,.1-.22,.22-.22h1.83c.85,0,1.5,.2,1.97,.59,.46,.39,.7,.94,.7,1.66,0,.43-.09,.81-.28,1.13-.12,.21-.28,.39-.47,.54s-.25,.42-.14,.64l.89,1.84c.1,.22-.05,.47-.29,.47h-.42c-.13,0-.24-.07-.3-.19l-.95-2.09c-.04-.08-.13-.14-.22-.13-.17,.02-.36,.03-.55,.03h-.7c-.12,0-.22,.1-.22,.22v1.94c0,.12-.1,.22-.22,.22h-.63c-.12,0-.22-.1-.22-.22V2.43Zm1.95,3.29c1.11,0-.38-.34-.38-1.19s1.49-1.35,.38-1.35h-.67c-.12,0-.22,.1-.22,.22v2.1c0,.12,.1,.22,.22,.22h.67Z"/></g></g></svg>