<?xml version="1.0" encoding="UTF-8"?><svg id="a" xmlns="http://www.w3.org/2000/svg" viewBox="0 0 104 26.31"><defs><style>.b{fill:#779773;}</style></defs><path class="b" d="M9.33,3.22c5.59,0,8.39,3.22,8.39,7.19,0,2.86-1.56,5.56-5.07,6.6l5.27,9.04h-6.28l-4.75-8.62h-1.33v8.62H0V3.22H9.33Zm-.33,4.62h-3.45v5.66h3.45c2.08,0,3.06-1.07,3.06-2.86,0-1.69-.98-2.8-3.06-2.8Z"/><path class="b" d="M20.69,3.03c0-1.69,1.33-3.03,3.32-3.03s3.28,1.33,3.28,3.03-1.33,2.99-3.28,2.99-3.32-1.33-3.32-2.99Zm.52,4.88h5.56V26.05h-5.56V7.9Z"/><path class="b" d="M38.06,21.01l-2.93,5.04h-6.02l5.99-9.27-6.15-8.88h6.25l3.48,5.01,2.93-5.01h6.02l-6.08,9.14,6.25,9.01h-6.25l-3.48-5.04Z"/><path class="b" d="M56.83,7.64c2.7,0,4.62,1.24,5.59,2.83v-2.57h5.56V26.05h-5.56v-2.57c-1.01,1.59-2.93,2.83-5.63,2.83-4.42,0-7.97-3.64-7.97-9.37s3.55-9.3,8-9.3Zm1.63,4.85c-2.08,0-3.97,1.56-3.97,4.46s1.89,4.52,3.97,4.52,3.97-1.59,3.97-4.49-1.85-4.49-3.97-4.49Z"/><path class="b" d="M77.59,26.05h-5.56V7.9h5.56v3.02c1.27-1.92,3.25-3.22,5.69-3.22v5.89h-1.53c-2.64,0-4.16,.91-4.16,4.03v8.42Z"/><path class="b" d="M92.84,7.64c2.41,0,4.49,1.11,5.59,2.76V1.98h5.56V26.05h-5.56v-2.6c-1.01,1.66-2.93,2.86-5.59,2.86-4.46,0-8-3.64-8-9.37s3.55-9.3,8-9.3Zm1.63,4.85c-2.08,0-3.97,1.56-3.97,4.46s1.89,4.52,3.97,4.52,3.97-1.59,3.97-4.49-1.85-4.49-3.97-4.49Z"/></svg>